<svg version="1.0" xmlns="http://www.w3.org/2000/svg"
 width="32.000000pt" height="32.000000pt" viewBox="0 0 32.000000 32.000000"
 preserveAspectRatio="xMidYMid meet">

<g transform="translate(0.000000,32.000000) scale(0.100000,-0.100000)"
fill="#000000" stroke="none">
<path d="M113 309 c-44 -13 -90 -62 -103 -110 -22 -80 29 -167 111 -189 112
-31 220 77 189 189 -13 50 -60 97 -108 111 -43 11 -46 11 -89 -1z m137 -69 c0
-5 -18 -10 -40 -10 l-39 0 -3 -77 c-3 -77 -3 -78 -30 -81 -16 -2 -28 1 -28 7
0 6 9 11 20 11 18 0 20 7 20 70 l0 70 -40 0 c-22 0 -40 5 -40 10 0 6 37 10 90
10 53 0 90 -4 90 -10z"/>
</g>
</svg>